# This file uses centimeters as units for non-parametric coordinates.

mtllib PRF_Rat_V1.mtl
g default
v 5.352746 -31.272083 4.427530
v 26.385149 17.295872 -118.079269
v 72.998734 17.353191 4.365433
v 26.318314 17.756092 169.484512
v -49.128418 17.837852 80.003922
v -15.096218 96.424408 -118.215546
v 60.360443 96.274323 -71.431458
v 60.325264 96.516525 79.903442
v -15.163054 96.884628 169.348251
v -61.766701 96.758987 4.207028
v 5.879274 145.384247 4.144931
v 23.037430 -1.238800 -98.751358
v 17.668970 -18.232372 -67.554794
v 11.225988 -28.513615 -29.953596
v -9.967505 -28.429447 -16.827217
v -26.695795 -18.056164 -40.077080
v -40.543457 -0.986267 -59.371925
v -34.637871 12.651310 -93.770927
v -14.333488 10.491417 -112.084930
v 7.749497 12.482956 -120.023972
v -55.861069 12.939587 46.836113
v -58.718994 10.810112 4.345291
v -9.977384 -28.361431 25.665947
v -26.716471 -17.913807 48.874702
v -40.573090 -0.782242 68.108383
v 62.303566 -1.190437 4.392624
v 45.067780 -18.198666 4.415838
v 24.314714 -28.497547 4.427497
v 42.032051 12.414795 -98.769005
v -46.350998 8.688778 -97.439331
v -71.103455 31.001421 -63.102402
v 22.979567 -0.840355 150.214478
v 17.635517 -18.002026 76.373459
v 11.210008 -28.403576 38.802368
v 68.193405 12.557076 38.750168
v 57.397072 10.579159 76.337204
v 41.974182 12.813244 150.197250
v 7.681756 12.949406 171.435944
v -14.397539 10.932453 163.493057
v -34.693413 13.033703 145.162811
v -66.507469 79.420807 -17.013037
v -66.147980 57.198799 -40.206863
v -59.419945 35.167976 68.046623
v -66.168671 57.341171 48.745277
v -66.517342 79.488808 25.480274
v -5.999664 79.054672 -133.265564
v 5.649463 56.825737 -139.643387
v 17.295609 34.617340 -133.189026
v -38.715858 57.001930 -112.165756
v -27.193468 79.138885 -120.139297
v 70.651978 78.944191 -59.474159
v 77.400665 56.771008 -40.172813
v 77.749359 34.623363 -16.907814
v 38.483315 34.575157 -120.052719
v 50.002007 56.737537 -112.144730
v 57.563339 78.928299 -93.855980
v 57.517731 79.242355 102.382072
v 49.947884 57.110245 120.738228
v 38.415573 35.041615 171.408279
v 77.739479 34.691368 25.585497
v 77.379990 56.913368 48.779320
v 70.622353 79.148209 68.006462
v -27.261209 79.605339 171.321686
v -38.779915 57.442966 163.413696
v -46.331314 35.183868 102.428444
v 17.203770 35.249710 261.943939
v 5.533859 51.675297 283.031891
v -6.102215 73.814346 233.252151
v -56.961395 101.555099 -30.177706
v -46.165047 103.533020 -67.764740
v -30.752079 101.367264 -98.928276
v 3.540344 101.231102 -120.166977
v 25.619638 103.248062 -112.224106
v 45.915512 101.146805 -93.893845
v 67.093079 101.172592 -38.263657
v 69.951012 103.302063 4.227171
v 67.073326 101.308601 46.723259
v 45.869904 101.460861 102.343384
v 25.555586 103.689102 163.353897
v 3.472602 101.697556 171.292938
v -30.800020 101.697372 107.341454
v -46.198502 103.763359 76.163994
v -56.977379 101.665138 38.578457
v 0.022011 142.515747 -30.229918
v -6.403492 132.114197 -67.801003
v -11.757463 115.020859 -98.945503
v -51.071533 115.302605 4.179838
v -33.835747 132.310822 4.156623
v -13.082701 142.609726 4.144964
v 21.209406 142.473587 -17.093485
v 37.948502 132.025986 -40.302246
v 51.805115 114.894417 -59.535919
v 21.199528 142.541595 25.399677
v 37.927826 132.168335 48.649536
v 51.775490 115.098442 67.944389
v 0.006031 142.625793 38.526054
v -6.436944 132.344543 76.127251
v -11.805405 115.350967 107.323814
v -21.461613 136.201294 41.987137
v -42.365402 121.175323 42.006493
v -27.961004 121.193039 79.843842
v 16.266708 136.126328 65.378395
v 9.767413 121.118088 103.235130
v 33.091415 121.025452 88.789192
v 39.601471 135.958786 4.167852
v 56.426201 120.857864 27.578373
v 56.437073 120.783020 -19.186388
v 16.295164 135.930374 -57.053764
v 33.130737 120.754669 -80.408272
v 9.813458 120.801056 -94.865257
v -21.444029 136.080200 -33.680397
v -27.925835 120.950851 -71.491875
v -42.347816 121.054214 -33.661369
v -59.363983 81.761444 65.448181
v -55.458611 57.373425 88.871002
v -44.959641 81.779144 103.285980
v 16.047878 75.977249 232.625290
v 28.877100 57.397831 261.282867
v 39.400772 81.633446 169.385269
v 77.167526 81.294014 27.646599
v 81.083885 56.831234 4.304079
v 77.178368 81.219231 -19.118372
v 39.467667 81.173187 -118.178329
v 28.968700 56.767445 -132.593414
v 16.150196 81.219551 -132.635361
v -44.913589 81.461990 -94.815727
v -59.335533 81.565353 -56.984863
v -17.775309 51.664185 232.656525
v -28.245544 33.007240 169.447296
v -4.956789 27.212078 232.698425
v 66.651268 57.009525 88.900139
v 56.145515 32.650066 103.388329
v 70.567467 32.546646 65.557426
v -67.554413 8.841045 -41.819199
v -60.806358 13.633125 -74.999390
v -52.256584 -4.948799 -63.040329
v -17.673052 56.906513 -132.604492
v -4.854529 32.454407 -132.562180
v -28.178715 32.547016 -118.116226
v -69.851868 57.280987 4.268331
v -65.935509 32.818142 -19.074121
v -65.946373 32.892982 27.690788
v -21.898687 -6.642441 88.980843
v -5.063106 -21.818142 65.626480
v 1.418605 -6.688751 103.437920
v 39.157967 -6.838680 80.064186
v 32.676117 -21.967991 42.252796
v 53.579918 -6.942009 42.233650
v 53.597488 -7.063084 -33.433975
v 32.693718 -22.089039 -33.414879
v 39.193138 -7.080791 -71.271446
v -45.205063 -6.670837 27.758816
v -45.194237 -6.745613 -19.006014
v -28.369520 -21.846569 4.404502
v 1.464557 -7.005875 -94.662727
v -5.034792 -22.014095 -56.806099
v -21.859474 -6.913158 -80.216835
v 5.067738 30.820990 -314.170715
v -22.215841 -9.876720 225.711823
v -42.511719 -7.775490 207.381546
v -29.725838 -27.390858 189.172348
v 47.030502 -21.744503 212.440781
v 66.025108 -8.090931 212.423569
v 63.200058 -27.681995 180.303986
v 84.324684 6.606720 -35.235466
v 89.114029 11.512859 -0.864032
v 93.864655 28.783043 -22.137278
v 78.418854 -7.030777 -0.836842
v 58.147324 6.574471 -103.998474
v 73.545822 4.508492 -72.820992
v 84.308701 6.716763 33.520699
v 86.767273 73.103867 -64.703629
v 93.515953 50.930672 -45.402283
v 54.598602 28.734833 -125.282196
v 66.117294 50.897209 -117.374222
v 73.678627 73.087975 -99.085457
v 82.805870 50.898415 -85.528183
v 72.306862 26.492701 -99.943199
v 86.711235 26.510380 -62.105476
v 69.712791 -12.903408 -38.663445
v 55.308411 -12.921101 -76.500908
v -67.574165 8.977058 43.167709
v -70.432114 6.847584 0.676889
v -77.861092 53.236271 -43.875267
v -57.998825 30.907274 -97.478012
v -50.428970 53.039402 -115.834183
v -56.626701 77.499474 -98.484138
v -67.132378 53.139938 -83.996033
v -71.048653 77.602829 -60.653259
v -39.891830 28.584488 -121.784622
v -77.648613 28.855606 -22.742521
v -56.918175 -10.633358 24.090414
v -56.907341 -10.708134 -22.674414
vn -0.059663 -0.994157 -0.089955
vn -0.059663 -0.994157 -0.089955
vn -0.059663 -0.994157 -0.089955
vn 0.144564 -0.987990 -0.054573
vn 0.144538 -0.987810 0.057802
vn -0.059706 -0.993864 0.093109
vn 0.229312 -0.568724 -0.789917
vn 0.229312 -0.568724 -0.789917
vn 0.229312 -0.568724 -0.789917
vn -0.963715 -0.070192 -0.257539
vn -0.963715 -0.070192 -0.257539
vn -0.963715 -0.070192 -0.257539
vn 0.608316 -0.494797 0.620587
vn 0.608316 -0.494797 0.620587
vn 0.608316 -0.494797 0.620587
vn -0.971988 -0.111051 0.207142
vn -0.971988 -0.111051 0.207142
vn -0.971988 -0.111051 0.207142
vn 0.477093 -0.422079 -0.770864
vn 0.964390 -0.264484 0.000647
vn 0.964390 -0.264484 0.000647
vn 0.964390 -0.264484 0.000647
vn 0.794825 -0.577130 0.187548
vn -0.892767 -0.295581 0.340000
vn -0.482513 0.670550 -0.563510
vn -0.482513 0.670550 -0.563510
vn -0.482513 0.670550 -0.563510
vn 0.742874 0.567832 -0.354549
vn 0.742874 0.567832 -0.354549
vn 0.742874 0.567832 -0.354549
vn 0.812972 0.529706 0.241843
vn 0.812972 0.529706 0.241843
vn 0.812972 0.529706 0.241843
vn -0.266856 0.927523 0.261703
vn -0.266856 0.927523 0.261703
vn -0.266856 0.927523 0.261703
vn -0.865162 0.499061 0.049317
vn -0.865162 0.499061 0.049317
vn -0.865162 0.499061 0.049317
vn -0.144563 0.987990 0.054573
vn -0.144563 0.987990 0.054573
vn -0.144563 0.987990 0.054573
vn -0.443878 0.894507 0.053199
vn -0.443878 0.894507 0.053199
vn -0.701441 0.710896 0.051074
vn -0.247856 0.944463 0.215773
vn -0.569695 0.792825 0.216507
vn -0.800924 0.565029 0.198148
vn -0.678575 0.630447 0.376924
vn 0.059664 0.994157 0.089956
vn -0.039004 0.965538 0.257322
vn -0.149082 0.878902 0.453106
vn 0.315278 0.930159 0.188161
vn 0.247226 0.885465 0.393485
vn 0.012332 0.961241 0.275434
vn 0.738425 0.636528 0.222622
vn 0.184486 0.982834 -0.001530
vn 0.428483 0.898781 0.092710
vn 0.654304 0.734454 0.180176
vn 0.428527 0.898480 -0.095388
vn 0.668751 0.743486 -0.001034
vn 0.839293 0.537453 0.082045
vn 0.839331 0.537189 -0.083375
vn 0.059706 0.993864 -0.093109
vn 0.315366 0.929552 -0.190991
vn 0.562676 0.775771 -0.285613
vn -0.038884 0.964710 -0.260430
vn 0.247409 0.884202 -0.396202
vn 0.524674 0.687446 -0.502131
vn 0.156388 0.762129 -0.628253
vn -0.247755 0.943767 -0.218910
vn -0.367666 0.840453 -0.398070
vn -0.569594 0.792128 -0.219308
vn -0.678400 0.629237 -0.379255
vn -0.800831 0.564392 -0.200328
vn -0.931865 0.354030 0.079312
vn -0.973477 0.158243 0.165233
vn -0.973477 0.158243 0.165233
vn -0.963835 -0.069368 0.257315
vn -0.917843 0.188518 0.349322
vn -0.942595 -0.258715 0.211144
vn -0.893340 0.377086 0.244437
vn -0.268334 0.893311 0.360545
vn -0.076413 0.904286 0.420034
vn -0.076413 0.904286 0.420034
vn 0.684171 -0.341360 0.644503
vn 0.543389 0.794296 0.271701
vn 0.974003 -0.172892 0.146379
vn 0.958522 -0.109642 0.263087
vn 0.898206 0.370713 0.236214
vn 0.974251 0.152464 0.166101
vn 0.974251 0.152464 0.166101
vn 0.994063 -0.070461 0.082916
vn 0.987423 0.158104 -0.000024
vn 0.994101 -0.070725 -0.082228
vn 0.974329 0.151932 -0.166135
vn 0.802106 0.419772 -0.424756
vn 0.794703 0.201195 -0.572685
vn 0.794703 0.201195 -0.572685
vn 0.693083 -0.105792 -0.713053
vn 0.508465 0.265147 -0.819244
vn 0.286808 -0.125610 -0.949718
vn -0.026154 0.516709 -0.855761
vn -0.608316 0.494797 -0.620587
vn -0.792774 0.206022 -0.573641
vn -0.792774 0.206022 -0.573641
vn -0.871755 0.359090 -0.333313
vn -0.286808 0.951426 -0.111937
vn -0.286808 0.951426 -0.111937
vn -0.973400 0.157712 -0.166190
vn -0.973400 0.157712 -0.166190
vn -0.886295 0.354164 0.298412
vn -0.912292 -0.335193 0.235306
vn -0.852252 -0.446308 0.272903
vn -0.595985 -0.535316 0.598530
vn 0.006887 -0.973616 0.228091
vn 0.882658 0.081958 0.462814
vn 0.966017 0.067853 0.249414
vn 0.917679 -0.187399 0.350352
vn 0.958239 -0.198254 0.206089
vn 0.880284 -0.414390 0.231043
vn -0.921617 -0.165838 -0.350884
vn -0.880519 0.104799 -0.462281
vn -0.892608 -0.296670 -0.339467
vn -0.898206 -0.370714 -0.236214
vn -0.812973 -0.529705 -0.241842
vn 0.386301 0.904606 0.180164
vn 0.386301 0.904606 0.180164
vn -0.437381 -0.658376 -0.612567
vn -0.437381 -0.658376 -0.612567
vn -0.437381 -0.658376 -0.612567
vn 0.304783 0.945274 -0.116463
vn 0.304783 0.945274 -0.116463
vn 0.437333 0.654614 0.616620
vn 0.437333 0.654614 0.616620
vn -0.017664 0.639476 -0.768609
vn -0.286367 0.122569 -0.950248
vn 0.000071 -0.279044 -0.960278
vn -0.508084 -0.267769 -0.818627
vn 0.385547 -0.878507 -0.282096
vn 0.385547 -0.878507 -0.282096
vn 0.385547 -0.878507 -0.282096
vn -0.217501 -0.613742 -0.758956
vn 0.414489 -0.755464 -0.507418
vn -0.416467 0.593401 0.688789
vn -0.416467 0.593401 0.688789
vn -0.994063 0.070461 -0.082916
vn -0.312878 0.949423 -0.026537
vn -0.312878 0.949423 -0.026537
vn -0.312878 0.949423 -0.026537
vn -0.312878 0.949423 -0.026537
vn -0.987423 -0.158104 0.000024
vn -0.857005 -0.491888 0.153590
vn -0.562675 -0.775771 0.285614
vn -0.562675 -0.775771 0.285614
vn -0.315366 -0.929552 0.190991
vn -0.522133 0.726944 0.446016
vn -0.522133 0.726944 0.446016
vn -0.522133 0.726944 0.446016
vn -0.247409 -0.884201 0.396204
vn 0.038884 -0.964710 0.260430
vn 0.429553 -0.885958 0.174821
vn 0.247756 -0.943767 0.218910
vn -0.940287 -0.296857 -0.166541
vn -0.940287 -0.296857 -0.166541
vn 0.569595 -0.792128 0.219307
vn 0.443851 -0.894332 0.056268
vn 0.701416 -0.710728 0.053674
vn -0.304781 -0.945274 0.116470
vn -0.304781 -0.945274 0.116470
vn -0.304781 -0.945274 0.116470
vn -0.304781 -0.945274 0.116470
vn 0.443877 -0.894507 -0.053200
vn -0.272697 -0.939219 0.208578
vn 0.247857 -0.944463 -0.215773
vn 0.367852 -0.841723 -0.395206
vn 0.345199 -0.933864 -0.093470
vn 0.345199 -0.933864 -0.093470
vn 0.009670 -0.694559 0.719371
vn 0.009670 -0.694559 0.719371
vn -0.668751 -0.743486 0.001034
vn -0.654304 -0.734454 -0.180177
vn 0.149081 -0.878902 -0.453106
vn 0.039003 -0.965538 -0.257323
vn -0.247228 -0.885464 -0.393486
vn -0.086512 0.961292 -0.261596
vn -0.489373 -0.742935 0.456686
vn 0.533736 -0.742012 0.405640
vn 0.931865 -0.354031 -0.079313
vn 0.963835 0.069367 -0.257315
vn 0.973477 -0.158243 -0.165233
vn 0.917842 -0.188518 -0.349323
vn 0.880391 -0.415127 -0.229306
s 1
g CrudeRat
usemtl CrudeRatSG
f 1//1 15//2 14//3
f 1//1 14//3 28//4
f 1//1 28//4 34//5
f 1//1 34//5 23//6
f 2//7 20//8 48//9
f 31//10 184//11 188//12
f 4//13 37//14 59//15
f 5//16 40//17 65//18
f 2//7 48//9 54//19
f 3//20 53//21 60//22
f 4//13 59//15 66//23
f 5//16 65//18 43//24
f 6//25 71//26 86//27
f 7//28 74//29 92//30
f 8//31 77//32 95//33
f 9//34 80//35 98//36
f 10//37 83//38 87//39
f 89//40 96//41 11//42
f 88//43 99//44 89//40
f 87//39 100//45 88//43
f 89//40 99//44 96//41
f 99//44 97//46 96//41
f 88//43 100//45 99//44
f 100//45 101//47 99//44
f 99//44 101//47 97//46
f 101//47 98//36 97//46
f 87//39 83//38 100//45
f 83//38 82//48 100//45
f 100//45 82//48 101//47
f 82//48 81//49 101//47
f 101//47 81//49 98//36
f 81//49 9//34 98//36
f 96//41 93//50 11//42
f 97//46 102//51 96//41
f 98//36 103//52 97//46
f 96//41 102//51 93//50
f 102//51 94//53 93//50
f 97//46 103//52 102//51
f 103//52 104//54 102//51
f 102//51 104//54 94//53
f 104//54 95//33 94//53
f 98//36 80//35 103//52
f 80//35 79//55 103//52
f 103//52 79//55 104//54
f 79//55 78//56 104//54
f 104//54 78//56 95//33
f 78//56 8//31 95//33
f 93//50 90//57 11//42
f 94//53 105//58 93//50
f 95//33 106//59 94//53
f 93//50 105//58 90//57
f 105//58 91//60 90//57
f 94//53 106//59 105//58
f 106//59 107//61 105//58
f 105//58 107//61 91//60
f 107//61 92//30 91//60
f 95//33 77//32 106//59
f 77//32 76//62 106//59
f 106//59 76//62 107//61
f 76//62 75//63 107//61
f 107//61 75//63 92//30
f 75//63 7//28 92//30
f 90//57 84//64 11//42
f 91//60 108//65 90//57
f 92//30 109//66 91//60
f 90//57 108//65 84//64
f 108//65 85//67 84//64
f 91//60 109//66 108//65
f 109//66 110//68 108//65
f 108//65 110//68 85//67
f 110//68 86//27 85//67
f 92//30 74//29 109//66
f 74//29 73//69 109//66
f 109//66 73//69 110//68
f 73//69 72//70 110//68
f 110//68 72//70 86//27
f 72//70 6//25 86//27
f 84//64 89//40 11//42
f 85//67 111//71 84//64
f 86//27 112//72 85//67
f 84//64 111//71 89//40
f 111//71 88//43 89//40
f 85//67 112//72 111//71
f 112//72 113//73 111//71
f 111//71 113//73 88//43
f 113//73 87//39 88//43
f 86//27 71//26 112//72
f 71//26 70//74 112//72
f 112//72 70//74 113//73
f 70//74 69//75 113//73
f 113//73 69//75 87//39
f 69//75 10//37 87//39
f 45//76 83//38 10//37
f 44//77 114//78 45//76
f 43//24 115//79 44//77
f 45//76 114//78 83//38
f 114//78 82//48 83//38
f 44//77 115//79 114//78
f 115//79 116//80 114//78
f 114//78 116//80 82//48
f 116//80 81//49 82//48
f 43//24 65//18 115//79
f 65//18 64//81 115//79
f 115//79 64//81 116//80
f 64//81 63//82 116//80
f 116//80 63//82 81//49
f 63//82 9//34 81//49
f 68//83 80//35 9//34
f 67//84 117//85 68//83
f 66//23 118//86 67//84
f 68//83 117//85 80//35
f 117//85 79//55 80//35
f 67//84 118//86 117//85
f 118//86 119//87 117//85
f 117//85 119//87 79//55
f 119//87 78//56 79//55
f 66//23 59//15 118//86
f 59//15 58//88 118//86
f 118//86 58//88 119//87
f 58//88 57//89 119//87
f 119//87 57//89 78//56
f 57//89 8//31 78//56
f 62//90 77//32 8//31
f 61//91 120//92 62//90
f 60//22 121//93 61//91
f 62//90 120//92 77//32
f 120//92 76//62 77//32
f 61//91 121//93 120//92
f 121//93 122//94 120//92
f 120//92 122//94 76//62
f 122//94 75//63 76//62
f 60//22 53//21 121//93
f 53//21 52//95 121//93
f 121//93 52//95 122//94
f 52//95 51//96 122//94
f 122//94 51//96 75//63
f 51//96 7//28 75//63
f 56//97 74//29 7//28
f 55//98 123//99 56//97
f 54//19 124//100 55//98
f 56//97 123//99 74//29
f 123//99 73//69 74//29
f 55//98 124//100 123//99
f 124//100 125//101 123//99
f 123//99 125//101 73//69
f 125//101 72//70 73//69
f 54//19 48//9 124//100
f 48//9 47//102 124//100
f 124//100 47//102 125//101
f 125//101 46//103 72//70
f 46//103 6//25 72//70
f 50//104 71//26 6//25
f 49//105 126//106 50//104
f 50//104 126//106 71//26
f 126//106 70//74 71//26
f 126//106 127//107 70//74
f 127//107 69//75 70//74
f 127//107 126//106 187//108 189//109
f 42//110 41//111 127//107
f 127//107 41//111 69//75
f 41//111 10//37 69//75
f 63//82 68//83 9//34
f 64//81 128//112 63//82
f 65//18 129//113 64//81
f 63//82 128//112 68//83
f 128//112 67//84 68//83
f 64//81 129//113 128//112
f 129//113 130//114 128//112
f 128//112 130//114 67//84
f 130//114 66//23 67//84
f 65//18 40//17 129//113
f 40//17 39//115 129//113
f 129//113 39//115 130//114
f 39//115 38//116 130//114
f 130//114 38//116 66//23
f 38//116 4//13 66//23
f 57//89 62//90 8//31
f 58//88 131//117 57//89
f 59//15 132//118 58//88
f 57//89 131//117 62//90
f 131//117 61//91 62//90
f 58//88 132//118 131//117
f 132//118 133//119 131//117
f 131//117 133//119 61//91
f 133//119 60//22 61//91
f 59//15 37//14 132//118
f 37//14 36//120 132//118
f 132//118 36//120 133//119
f 36//120 35//121 133//119
f 133//119 35//121 60//22
f 35//121 3//20 60//22
f 51//96 56//97 7//28
f 185//122 31//10 188//12
f 188//12 189//109 187//108
f 186//123 188//12 187//108
f 185//122 188//12 186//123
f 135//124 31//10 185//122
f 135//124 134//125 31//10
f 135//124 136//126 134//125
f 3//20 35//121 171//127 166//128
f 29//129 54//19 174//130 169//131
f 56//97 51//96 172//132 176//133
f 52//95 53//21 167//134 173//135
f 55//98 56//97 176//133 175//136
f 51//96 52//95 173//135 172//132
f 29//129 2//7 54//19
f 46//103 50//104 6//25
f 47//102 137//137 46//103
f 48//9 138//138 47//102
f 46//103 137//137 50//104
f 137//137 49//105 50//104
f 47//102 138//138 137//137
f 138//138 139//139 137//137
f 137//137 139//139 49//105
f 18//140 17//141 136//126 30//142
f 48//9 20//8 138//138
f 20//8 19//143 138//138
f 138//138 19//143 139//139
f 19//143 18//140 139//139
f 139//139 18//140 30//142 190//144
f 141//145 42//110 184//11 191//146
f 41//111 45//76 10//37
f 42//110 140//147 41//111
f 21//148 22//149 183//150 182//151
f 41//111 140//147 45//76
f 140//147 44//77 45//76
f 42//110 141//145 140//147
f 141//145 142//152 140//147
f 140//147 142//152 44//77
f 142//152 43//24 44//77
f 22//149 141//145 191//146 183//150
f 126//106 49//105 186//123 187//108
f 141//145 22//149 142//152
f 22//149 21//148 142//152
f 142//152 21//148 43//24
f 21//148 5//16 43//24
f 25//153 40//17 5//16
f 24//154 143//155 25//153
f 23//6 144//156 24//154
f 25//153 143//155 40//17
f 37//14 32//157 162//158 163//159
f 24//154 144//156 143//155
f 144//156 145//160 143//155
f 143//155 145//160 39//115
f 145//160 38//116 39//115
f 23//6 34//5 144//156
f 34//5 33//161 144//156
f 144//156 33//161 145//160
f 33//161 32//157 145//160
f 145//160 32//157 38//116
f 32//157 4//13 38//116
f 32//157 37//14 4//13
f 33//161 146//162 32//157
f 34//5 147//163 33//161
f 40//17 143//155 161//164 160//165
f 146//162 36//120 37//14
f 33//161 147//163 146//162
f 147//163 148//166 146//162
f 146//162 148//166 36//120
f 148//166 35//121 36//120
f 34//5 28//4 147//163
f 28//4 27//167 147//163
f 147//163 27//167 148//166
f 27//167 26//168 148//166
f 148//166 26//168 35//121
f 54//19 55//98 175//136 174//130
f 149//169 151//170 181//171 180//172
f 27//167 149//169 26//168
f 28//4 150//173 27//167
f 151//170 29//129 169//131 181//171
f 53//21 3//20 166//128 167//134
f 27//167 150//173 149//169
f 150//173 151//170 149//169
f 26//168 149//169 180//172 168//174
f 35//121 26//168 168//174 171//127
f 28//4 14//3 150//173
f 14//3 13//175 150//173
f 150//173 13//175 151//170
f 13//175 12//176 151//170
f 151//170 12//176 29//129
f 12//176 2//7 29//129
f 21//148 25//153 5//16
f 17//141 153//177 193//178 136//126
f 152//179 21//148 182//151 192//180
f 21//148 152//179 25//153
f 152//179 24//154 25//153
f 49//105 139//139 190//144 186//123
f 153//177 154//181 152//179
f 152//179 154//181 24//154
f 154//181 23//6 24//154
f 42//110 127//107 189//109 184//11
f 17//141 16//182 153//177
f 153//177 16//182 154//181
f 16//182 15//2 154//181
f 154//181 15//2 23//6
f 15//2 1//1 23//6
f 12//176 20//8 2//7
f 13//175 155//183 12//176
f 14//3 156//184 13//175
f 12//176 155//183 20//8
f 155//183 19//143 20//8
f 13//175 156//184 155//183
f 156//184 157//185 155//183
f 155//183 157//185 19//143
f 157//185 18//140 19//143
f 14//3 15//2 156//184
f 15//2 16//182 156//184
f 156//184 16//182 157//185
f 16//182 17//141 157//185
f 157//185 17//141 18//140
f 153//177 152//179 192//180 193//178
f 46//103 125//101 158//186
f 125//101 47//102 158//186
f 47//102 46//103 158//186
f 161//164 159//187 160//165
f 162//158 164//188 163//159
f 146//162 37//14 163//159 164//188
f 143//155 39//115 159//187 161//164
f 39//115 40//17 160//165 159//187
f 32//157 146//162 164//188 162//158
f 166//128 165//189 167//134
f 173//135 177//190 172//132
f 167//134 179//191 173//135
f 172//132 177//190 176//133
f 177//190 175//136 176//133
f 173//135 179//191 177//190
f 179//191 178//192 177//190
f 177//190 178//192 175//136
f 178//192 174//130 175//136
f 167//134 165//189 179//191
f 165//189 170//193 179//191
f 179//191 170//193 178//192
f 170//193 169//131 178//192
f 178//192 169//131 174//130
f 168//174 166//128 171//127
f 168//174 165//189 166//128
f 168//174 180//172 165//189
f 180//172 170//193 165//189
f 180//172 181//171 170//193
f 181//171 169//131 170//193
f 188//12 184//11 189//109
f 190//144 185//122 186//123
f 190//144 30//142 185//122
f 30//142 135//124 185//122
f 31//10 191//146 184//11
f 31//10 134//125 191//146
f 134//125 183//150 191//146
f 183//150 192//180 182//151
f 134//125 193//178 183//150
f 183//150 193//178 192//180
f 134//125 136//126 193//178
f 136//126 135//124 30//142
